<?xml version="1.0" ?><svg id="icons" viewBox="0 0 512 512" xmlns="http://www.w3.org/2000/svg"><defs><style>.cls-1{stroke-miterlimit:10;}.cls-1,.cls-2,.cls-3,.cls-4,.cls-5{fill:none;stroke:#808285;stroke-width:7px;}.cls-2{stroke-miterlimit:10;}.cls-3{stroke-miterlimit:10;}.cls-4{stroke-miterlimit:10;}.cls-5{stroke-miterlimit:10;}</style></defs><path class="cls-2" d="M411.87,253.25c0,78.97-69.03,142.99-154.15,142.99-10.61,0-20.98-1-31-2.92-31.78,38.15-121.24,53.68-96.99,36.22,17.19-12.37,30.08-43.95,36.18-61.48-37.82-26.05-62.31-67.77-62.31-114.81,0-79,69.03-143.03,154.11-143.03s154.15,64.06,154.15,143.03Z"/><g><path class="cls-2" d="M291.43,262.64c-5.65-9.65-17.81-16.47-31.91-16.47s-26.17,6.75-31.91,16.47c-10.1,4.73-16.47,11.62-16.47,19.31,0,14.2,21.65,25.72,48.38,25.72s48.38-11.52,48.38-25.72c0-7.69-6.37-14.59-16.47-19.31Z"/><ellipse class="cls-5" cx="277.3" cy="210.78" rx="19.05" ry="14.62" transform="translate(8.22 431.96) rotate(-76.66)"/><ellipse class="cls-3" cx="236.56" cy="210.77" rx="14.62" ry="19.05" transform="translate(-42.25 60.27) rotate(-13.34)"/><ellipse class="cls-4" cx="205.07" cy="242.02" rx="12.84" ry="16.75" transform="translate(-93.54 134.96) rotate(-30)"/><ellipse class="cls-1" cx="310.41" cy="237.68" rx="16.75" ry="12.84" transform="translate(-50.63 387.66) rotate(-60)"/></g></svg>